<?xml version="1.0" encoding="UTF-8"?>
<svg id="Layer_1" xmlns="http://www.w3.org/2000/svg" version="1.1" viewBox="0 0 257.6 235">
  <!-- Generator: Adobe Illustrator 29.5.0, SVG Export Plug-In . SVG Version: 2.1.0 Build 137)  -->
  <defs>
    <style>
      .st0 {
        fill: #fff;
      }

      .st1 {
        fill: #dbae03;
      }

      .st2 {
        fill: #705a01;
      }

      .st3 {
        fill: #eacd5d;
      }
    </style>
  </defs>
  <path class="st3" d="M0,25.1C13.9,16.7,27.8,8.4,41.7,0c0,64.1,0,128.3,0,192.4-4.3,2.3-8.5,5.1-12.7,7.6-2,1.2-4.1,2.4-6.1,3.7-7.6,4.5-15.2,9.1-22.8,13.7-.2-6.5,0-13.1-.1-19.6,0-57.6,0-115.1,0-172.7Z"/>
  <path class="st1" d="M41.7,0c59.7,0,119.3,0,179,0,3,0,6.1-.2,9,.9,5.1,1.9,8.8,7,8.9,12.5v178.9c-65.6.1-131.3,0-196.9,0,0-64.1,0-128.3,0-192.4h0ZM113.3,42.4v19.4h13.8c0,23.1,0,46.1,0,69.2h-13.8c0,6.5,0,12.9,0,19.4.6,0,1.2,0,1.8,0,2.8,0,5.6,0,8.4,0l.3.2c2.9-.4,5.8-.2,8.7-.2,1.7,0,3.4,0,5.1,0h7.9c3,0,6.1,0,9.1,0,1.6,0,3.1.3,4.7,0,2.9-.1,5.9,0,8.8,0v-19.4h-13.8c0-23.1,0-46.1,0-69.2,4.6,0,9.2,0,13.8,0,0-6.5,0-12.9,0-19.4h-54.7,0Z"/>
  <path class="st0" d="M113.3,42.4h54.7c0,6.5,0,12.9,0,19.4-4.6,0-9.2,0-13.8,0,0,23.1,0,46.1,0,69.2,4.6,0,9.2,0,13.8,0v19.4c-2.9,0-5.9,0-8.8,0-1.6.2-3.1,0-4.7,0-3,0-6.1,0-9.1,0-2.6,0-5.3,0-7.9,0-1.7,0-3.4,0-5.1,0-2.9,0-5.8-.2-8.7.2l-.3-.2c-2.8,0-5.6,0-8.4,0-.6,0-1.2,0-1.8,0,0-6.5,0-12.9,0-19.4h13.8c0-23.1,0-46.1,0-69.2h-13.8c0-6.5,0-12.9,0-19.4h0Z"/>
  <path class="st2" d="M238.6,43.3c6.3,0,12.7,0,19,0v191.7H36.3c-4.1,0-8.1-2-10.7-5.3-2-2.5-3.1-5.8-3-9.1,0-5.6,0-11.2,0-16.8l.2-.2c2-1.3,4.1-2.5,6.1-3.7,4.3-2.5,8.4-5.2,12.7-7.6,65.6-.1,131.3,0,196.9,0V43.3h0Z"/>
</svg>